# Blender v2.93.4 OBJ File: ''
# www.blender.org
mtllib QAGCF28LGuideWire.mtl
o Guidewire_Cylinder
v 0.061364 -0.020158 -0.022140
v -0.056347 0.027318 -0.003670
v 0.061250 -0.020432 -0.022170
v -0.056462 0.027044 -0.003700
v 0.061131 -0.020681 -0.022280
v -0.056580 0.026795 -0.003810
v 0.061020 -0.020884 -0.022470
v -0.056691 0.026592 -0.004000
v 0.060925 -0.021023 -0.022720
v -0.056786 0.026453 -0.004240
v 0.060856 -0.021084 -0.023000
v -0.056855 0.026392 -0.004530
v 0.060818 -0.021064 -0.023290
v -0.056893 0.026412 -0.004820
v 0.060815 -0.020962 -0.023580
v -0.056896 0.026514 -0.005100
v 0.060847 -0.020790 -0.023820
v -0.056864 0.026686 -0.005340
v 0.060911 -0.020561 -0.024000
v -0.056800 0.026915 -0.005520
v 0.061001 -0.020296 -0.024100
v -0.056710 0.027180 -0.005620
v 0.061110 -0.020020 -0.024120
v -0.056601 0.027457 -0.005640
v 0.061228 -0.019755 -0.024050
v -0.056483 0.027721 -0.005570
v 0.061344 -0.019526 -0.023890
v -0.056367 0.027950 -0.005420
v 0.061448 -0.019353 -0.023670
v -0.056263 0.028123 -0.005200
v 0.061531 -0.019252 -0.023410
v -0.056180 0.028224 -0.004930
v 0.061585 -0.019232 -0.023110
v -0.056126 0.028245 -0.004640
v 0.061606 -0.019293 -0.022820
v -0.056105 0.028183 -0.004350
v 0.061592 -0.019432 -0.022560
v -0.056120 0.028045 -0.004090
v 0.061543 -0.019635 -0.022350
v -0.056168 0.027842 -0.003870
v 0.061465 -0.019884 -0.022200
v -0.056246 0.027592 -0.003730
v -0.056502 0.027318 -0.004660
v 0.061209 -0.020158 -0.023130
vn 0.0950 -0.1473 0.9845
vn 0.0949 -0.1476 0.9845
vn -0.0164 -0.3975 0.9175
vn -0.0164 -0.3975 0.9174
vn -0.0162 -0.3971 0.9176
vn -0.1373 -0.6358 0.7595
vn -0.1370 -0.6355 0.7598
vn -0.2412 -0.8075 0.5382
vn -0.2354 -0.7989 0.5534
vn -0.3212 -0.9050 0.2789
vn -0.3220 -0.9057 0.2758
vn -0.3230 -0.9065 0.2718
vn -0.3234 -0.9069 0.2702
vn -0.3763 -0.9263 -0.0170
vn -0.3763 -0.9264 -0.0169
vn -0.3969 -0.8679 -0.2986
vn -0.3970 -0.8668 -0.3019
vn -0.3971 -0.8652 -0.3061
vn -0.3971 -0.8646 -0.3079
vn -0.3824 -0.7252 -0.5725
vn -0.3824 -0.7252 -0.5726
vn -0.3824 -0.7253 -0.5725
vn -0.3341 -0.5234 -0.7839
vn -0.3341 -0.5235 -0.7838
vn -0.2530 -0.2652 -0.9304
vn -0.1586 -0.0089 -0.9873
vn -0.0409 0.2727 -0.9612
vn -0.0408 0.2731 -0.9611
vn 0.0867 0.5407 -0.8367
vn 0.0758 0.5192 -0.8513
vn 0.1895 0.7267 -0.6603
vn 0.1896 0.7268 -0.6602
vn 0.1893 0.7264 -0.6607
vn 0.2807 0.8610 -0.4241
vn 0.2848 0.8660 -0.4111
vn 0.3536 0.9266 -0.1281
vn 0.3534 0.9265 -0.1295
vn 0.3531 0.9264 -0.1311
vn 0.3528 0.9262 -0.1328
vn 0.3911 0.9055 0.1646
vn 0.3911 0.9054 0.1652
vn 0.3911 0.9054 0.1651
vn 0.3911 0.9053 0.1658
vn 0.3939 0.8022 0.4488
vn 0.3939 0.8026 0.4480
vn 0.3940 0.8024 0.4483
vn 0.3940 0.8026 0.4479
vn 0.3612 0.6269 0.6903
vn 0.3650 0.6428 0.6735
vn 0.3035 0.4195 0.8555
vn 0.2957 0.3948 0.8698
vn 0.2068 0.1359 0.9689
vn -0.9180 0.3697 0.1437
vn -0.9172 0.3712 0.1450
vn -0.9180 0.3693 0.1446
vn -0.9174 0.3709 0.1441
vn -0.9168 0.3723 0.1445
vn -0.9181 0.3705 0.1409
vn -0.9172 0.3707 0.1460
vn -0.9172 0.3709 0.1458
vn -0.9175 0.3706 0.1446
vn -0.9174 0.3706 0.1449
vn -0.9175 0.3703 0.1450
vn -0.9174 0.3704 0.1452
vn -0.9172 0.3711 0.1452
vn -0.9174 0.3707 0.1450
vn -0.9177 0.3701 0.1447
vn -0.9181 0.3692 0.1440
vn -0.9181 0.3693 0.1442
vn -0.9180 0.3692 0.1448
vn -0.9179 0.3695 0.1444
vn -0.9171 0.3715 0.1445
vn -0.9176 0.3713 0.1419
vn -0.9182 0.3692 0.1435
vn 0.9179 -0.3699 -0.1439
vn 0.9181 -0.3695 -0.1437
vn 0.9178 -0.3701 -0.1438
vn 0.9180 -0.3697 -0.1432
vn 0.9183 -0.3691 -0.1433
vn 0.9175 -0.3702 -0.1456
vn 0.9166 -0.3724 -0.1456
vn 0.9181 -0.3695 -0.1436
vn 0.9180 -0.3695 -0.1436
vn 0.9181 -0.3694 -0.1438
vn 0.9177 -0.3707 -0.1432
vn 0.9175 -0.3709 -0.1435
vn 0.9179 -0.3698 -0.1441
vn 0.9181 -0.3693 -0.1438
vn 0.9166 -0.3722 -0.1457
vn 0.9179 -0.3711 -0.1406
vn 0.9182 -0.3697 -0.1424
vn 0.9179 -0.3695 -0.1448
vn 0.9179 -0.3693 -0.1451
vn 0.9177 -0.3700 -0.1446
vn 0.9178 -0.3700 -0.1437
usemtl color_c0c0c0
s 1
f 1//1 2//2 3//1
f 4//2 3//1 2//2
f 3//3 4//4 5//3
f 6//5 5//3 4//4
f 5//6 6//7 7//6
f 8//6 7//6 6//7
f 7//8 8//8 9//8
f 10//9 9//9 8//9
f 9//10 10//11 11//12
f 12//13 11//12 10//11
f 11//14 12//15 13//14
f 14//15 13//14 12//15
f 13//16 14//17 15//18
f 16//19 15//18 14//17
f 15//20 16//21 17//22
f 18//21 17//22 16//21
f 17//23 18//24 19//24
f 20//24 19//24 18//24
f 19//25 20//25 21//25
f 22//25 21//25 20//25
f 21//26 22//26 23//26
f 24//26 23//26 22//26
f 23//27 24//28 25//27
f 26//28 25//27 24//28
f 25//29 26//29 27//29
f 28//30 27//30 26//30
f 27//31 28//31 29//32
f 30//33 29//32 28//31
f 29//34 30//34 31//34
f 32//35 31//35 30//35
f 31//36 32//37 33//38
f 34//39 33//38 32//37
f 33//40 34//41 35//42
f 36//43 35//42 34//41
f 35//44 36//45 37//46
f 38//47 37//46 36//45
f 37//48 38//48 39//48
f 40//49 39//49 38//49
f 39//50 40//50 41//50
f 42//51 41//51 40//51
f 41//52 42//52 1//52
f 2//52 1//52 42//52
f 2//53 43//54 4//55
f 4//55 43//54 6//56
f 6//56 43//54 8//57
f 8//57 43//54 10//58
f 10//58 43//54 12//59
f 12//59 43//54 14//60
f 14//60 43//54 16//61
f 16//61 43//54 18//62
f 18//62 43//54 20//63
f 20//63 43//54 22//64
f 22//64 43//54 24//65
f 24//65 43//54 26//66
f 26//66 43//54 28//67
f 28//67 43//54 30//68
f 30//68 43//54 32//69
f 32//69 43//54 34//70
f 34//70 43//54 36//71
f 36//71 43//54 38//72
f 38//72 43//54 40//73
f 40//73 43//54 42//74
f 42//74 43//54 2//53
f 3//75 44//75 1//76
f 5//77 44//75 3//75
f 7//78 44//75 5//77
f 9//79 44//75 7//78
f 11//80 44//75 9//79
f 13//81 44//75 11//80
f 15//82 44//75 13//81
f 17//83 44//75 15//82
f 19//84 44//75 17//83
f 21//85 44//75 19//84
f 23//86 44//75 21//85
f 25//87 44//75 23//86
f 27//88 44//75 25//87
f 29//89 44//75 27//88
f 31//90 44//75 29//89
f 33//91 44//75 31//90
f 35//92 44//75 33//91
f 37//93 44//75 35//92
f 39//94 44//75 37//93
f 41//95 44//75 39//94
f 1//76 44//75 41//95
