# Blender v2.93.4 OBJ File: ''
# www.blender.org
mtllib SAGLR50LGuideWire.mtl
o Guidewire_Part
v 0.059239 -0.040867 0.015024
v -0.047063 0.020518 0.019579
v 0.059090 -0.041122 0.014986
v -0.047212 0.020263 0.019540
v 0.058951 -0.041355 0.014863
v -0.047352 0.020030 0.019417
v 0.058833 -0.041544 0.014665
v -0.047469 0.019841 0.019219
v 0.058748 -0.041673 0.014410
v -0.047555 0.019712 0.018964
v 0.058702 -0.041730 0.014121
v -0.047600 0.019654 0.018675
v 0.058700 -0.041711 0.013824
v -0.047602 0.019674 0.018378
v 0.058743 -0.041617 0.013544
v -0.047560 0.019768 0.018099
v 0.058826 -0.041456 0.013308
v -0.047477 0.019929 0.017862
v 0.058941 -0.041242 0.013135
v -0.047361 0.020142 0.017689
v 0.059080 -0.040996 0.013041
v -0.047223 0.020389 0.017595
v 0.059229 -0.040738 0.013034
v -0.047074 0.020647 0.017588
v 0.059375 -0.040491 0.013116
v -0.046928 0.020894 0.017670
v 0.059505 -0.040278 0.013278
v -0.046798 0.021107 0.017833
v 0.059608 -0.040117 0.013508
v -0.046695 0.021268 0.018061
v 0.059674 -0.040022 0.013782
v -0.046629 0.021363 0.018336
v 0.059698 -0.040003 0.014079
v -0.046605 0.021382 0.018633
v 0.059677 -0.040060 0.014370
v -0.046625 0.021324 0.018924
v 0.059614 -0.040189 0.014631
v -0.046689 0.021195 0.019186
v 0.059513 -0.040379 0.014839
v -0.046789 0.021006 0.019393
v 0.059385 -0.040611 0.014974
v -0.046918 0.020773 0.019528
v -0.047106 0.020518 0.018580
v 0.059196 -0.040867 0.014025
vn -0.0320 -0.1290 0.9911
vn -0.0326 -0.1299 0.9910
vn -0.0332 -0.1309 0.9908
vn -0.0337 -0.1318 0.9907
vn -0.1773 -0.3746 0.9101
vn -0.1774 -0.3748 0.9100
vn -0.1774 -0.3747 0.9100
vn -0.3084 -0.5895 0.7465
vn -0.3084 -0.5894 0.7467
vn -0.3083 -0.5893 0.7468
vn -0.4114 -0.7507 0.5169
vn -0.4113 -0.7506 0.5171
vn -0.4111 -0.7504 0.5176
vn -0.4773 -0.8446 0.2426
vn -0.4773 -0.8445 0.2428
vn -0.4772 -0.8444 0.2433
vn -0.5011 -0.8639 -0.0519
vn -0.5011 -0.8638 -0.0525
vn -0.5011 -0.8638 -0.0529
vn -0.5011 -0.8638 -0.0533
vn -0.4805 -0.8065 -0.3445
vn -0.4804 -0.8062 -0.3455
vn -0.4804 -0.8062 -0.3454
vn -0.4803 -0.8060 -0.3459
vn -0.4165 -0.6762 -0.6077
vn -0.4167 -0.6764 -0.6073
vn -0.4169 -0.6770 -0.6065
vn -0.4171 -0.6773 -0.6061
vn -0.3165 -0.4877 -0.8136
vn -0.3167 -0.4881 -0.8133
vn -0.3166 -0.4879 -0.8134
vn -0.1884 -0.2559 -0.9482
vn -0.1883 -0.2557 -0.9482
vn -0.0438 -0.0018 -0.9990
vn 0.1066 0.2559 -0.9608
vn 0.2456 0.4874 -0.8379
vn 0.2459 0.4880 -0.8375
vn 0.2461 0.4884 -0.8372
vn 0.2464 0.4888 -0.8369
vn 0.3644 0.6784 -0.6380
vn 0.3640 0.6777 -0.6390
vn 0.3634 0.6768 -0.6402
vn 0.3630 0.6762 -0.6411
vn 0.4485 0.8055 -0.3873
vn 0.4488 0.8059 -0.3861
vn 0.4489 0.8061 -0.3856
vn 0.4492 0.8063 -0.3848
vn 0.4947 0.8638 -0.0952
vn 0.4947 0.8638 -0.0958
vn 0.4963 0.8445 0.2012
vn 0.4963 0.8444 0.2016
vn 0.4962 0.8444 0.2019
vn 0.4962 0.8443 0.2024
vn 0.4539 0.7504 0.4805
vn 0.4541 0.7507 0.4799
vn 0.4541 0.7506 0.4800
vn 0.4542 0.7509 0.4794
vn 0.3709 0.5889 0.7181
vn 0.3708 0.5889 0.7181
vn 0.3707 0.5887 0.7183
vn 0.2558 0.3769 0.8902
vn 0.2557 0.3766 0.8904
vn 0.2554 0.3761 0.8907
vn 0.2552 0.3758 0.8909
vn 0.1153 0.1266 0.9852
vn 0.1160 0.1277 0.9850
vn 0.1167 0.1291 0.9847
vn 0.1174 0.1302 0.9845
vn -0.8654 0.4997 0.0373
vn -0.8654 0.4997 0.0372
vn -0.8652 0.5000 0.0373
vn -0.8654 0.4996 0.0371
vn -0.8654 0.4997 0.0370
vn -0.8655 0.4996 0.0367
vn -0.8654 0.4997 0.0371
vn -0.8653 0.4998 0.0374
vn -0.8653 0.4999 0.0370
vn -0.8652 0.5000 0.0371
vn -0.8654 0.4996 0.0372
vn -0.8653 0.4999 0.0371
vn -0.8655 0.4995 0.0371
vn -0.8655 0.4996 0.0370
vn -0.8653 0.4999 0.0368
vn 0.8659 -0.4989 -0.0369
vn 0.8654 -0.4998 -0.0370
vn 0.8651 -0.5003 -0.0372
vn 0.8659 -0.4989 -0.0374
vn 0.8656 -0.4994 -0.0373
vn 0.8657 -0.4992 -0.0378
vn 0.8654 -0.4996 -0.0385
vn 0.8653 -0.4999 -0.0364
vn 0.8654 -0.4998 -0.0357
vn 0.8662 -0.4984 -0.0376
vn 0.8654 -0.4996 -0.0375
vn 0.8645 -0.5013 -0.0362
vn 0.8652 -0.5000 -0.0363
vn 0.8650 -0.5004 -0.0367
vn 0.8652 -0.5001 -0.0361
vn 0.8653 -0.5000 -0.0366
vn 0.8651 -0.5003 -0.0367
vn 0.8653 -0.5000 -0.0368
vn 0.8652 -0.4999 -0.0375
vn 0.8653 -0.4999 -0.0373
vn 0.8652 -0.5000 -0.0374
usemtl color_c0c0c0
s 1
f 1//1 2//2 3//3
f 4//4 3//3 2//2
f 3//5 4//6 5//5
f 6//7 5//5 4//6
f 5//8 6//9 7//8
f 8//10 7//8 6//9
f 7//11 8//12 9//11
f 10//13 9//11 8//12
f 9//14 10//15 11//14
f 12//16 11//14 10//15
f 11//17 12//18 13//19
f 14//20 13//19 12//18
f 13//21 14//22 15//23
f 16//24 15//23 14//22
f 15//25 16//26 17//27
f 18//28 17//27 16//26
f 17//29 18//30 19//31
f 20//30 19//31 18//30
f 19//32 20//33 21//32
f 22//33 21//32 20//33
f 21//34 22//34 23//34
f 24//34 23//34 22//34
f 23//35 24//35 25//35
f 26//35 25//35 24//35
f 25//36 26//37 27//38
f 28//39 27//38 26//37
f 27//40 28//41 29//42
f 30//43 29//42 28//41
f 29//44 30//45 31//46
f 32//47 31//46 30//45
f 31//48 32//48 33//48
f 34//49 33//48 32//48
f 33//50 34//51 35//52
f 36//53 35//52 34//51
f 35//54 36//55 37//56
f 38//57 37//56 36//55
f 37//58 38//59 39//58
f 40//60 39//58 38//59
f 39//61 40//62 41//63
f 42//64 41//63 40//62
f 41//65 42//66 1//67
f 2//68 1//67 42//66
f 2//69 43//70 4//71
f 4//71 43//70 6//72
f 6//72 43//70 8//73
f 8//73 43//70 10//74
f 10//74 43//70 12//75
f 12//75 43//70 14//70
f 14//70 43//70 16//76
f 16//76 43//70 18//77
f 18//77 43//70 20//78
f 20//78 43//70 22//79
f 22//79 43//70 24//80
f 24//80 43//70 26//81
f 26//81 43//70 28//70
f 28//70 43//70 30//73
f 30//73 43//70 32//82
f 32//82 43//70 34//73
f 34//73 43//70 36//73
f 36//73 43//70 38//83
f 38//83 43//70 40//76
f 40//76 43//70 42//78
f 42//78 43//70 2//69
f 3//84 44//85 1//86
f 5//87 44//85 3//84
f 7//88 44//85 5//87
f 9//89 44//85 7//88
f 11//90 44//85 9//89
f 13//91 44//85 11//90
f 15//92 44//85 13//91
f 17//93 44//85 15//92
f 19//94 44//85 17//93
f 21//95 44//85 19//94
f 23//96 44//85 21//95
f 25//91 44//85 23//96
f 27//97 44//85 25//91
f 29//98 44//85 27//97
f 31//99 44//85 29//98
f 33//100 44//85 31//99
f 35//101 44//85 33//100
f 37//102 44//85 35//101
f 39//103 44//85 37//102
f 41//104 44//85 39//103
f 1//86 44//85 41//104
